<mxfile host="app.diagrams.net" modified="2021-06-21T13:01:13.306Z" agent="5.0 (Macintosh; Intel Mac OS X 10_14_6) AppleWebKit/537.36 (KHTML, like Gecko) Chrome/91.0.4472.106 Safari/537.36" etag="vtffr14Hh-kEqGG6nc6L" version="14.7.6" type="github">
  <diagram name="Page-1" id="82e54ff1-d628-8f03-85c4-9753963a91cd">
    <mxGraphModel dx="1306" dy="724" grid="1" gridSize="10" guides="1" tooltips="1" connect="1" arrows="1" fold="1" page="1" pageScale="1" pageWidth="1100" pageHeight="850" background="none" math="0" shadow="0">
      <root>
        <mxCell id="0" />
        <mxCell id="1" parent="0" />
        <mxCell id="4ec97bd9e5d20128-1" value="" style="line;strokeWidth=2;html=1;fillColor=none;fontSize=28;fontColor=#004D99;strokeColor=#004D99;" parent="1" vertex="1">
          <mxGeometry x="40" y="400" width="1000" height="10" as="geometry" />
        </mxCell>
        <mxCell id="4ec97bd9e5d20128-5" value="2020-07-06~&lt;br&gt;2020-07-20" style="shape=offPageConnector;whiteSpace=wrap;html=1;fillColor=#d5e8d4;fontSize=15;size=0.5093750000000015;verticalAlign=top;strokeColor=#82b366;" parent="1" vertex="1">
          <mxGeometry x="120" y="330" width="160" height="50" as="geometry" />
        </mxCell>
        <mxCell id="4ec97bd9e5d20128-6" value="&lt;span&gt;2020-08-09~&lt;br&gt;2020-10-23&lt;/span&gt;" style="shape=offPageConnector;whiteSpace=wrap;html=1;fillColor=#d5e8d4;fontSize=15;size=0.5093750000000015;verticalAlign=top;strokeColor=#82b366;" parent="1" vertex="1">
          <mxGeometry x="573" y="320" width="157" height="60" as="geometry" />
        </mxCell>
        <mxCell id="4ec97bd9e5d20128-7" value="&lt;span&gt;2020-07-20~&lt;br&gt;2020-08-09&lt;br&gt;&lt;/span&gt;" style="shape=offPageConnector;whiteSpace=wrap;html=1;fillColor=#ffe6cc;fontSize=15;size=0.4178571428571445;flipV=1;verticalAlign=bottom;strokeColor=#d79b00;spacingBottom=4;" parent="1" vertex="1">
          <mxGeometry x="346" y="424" width="163" height="55" as="geometry" />
        </mxCell>
        <mxCell id="4ec97bd9e5d20128-8" value="&lt;span&gt;2020-10-23~&lt;br&gt;2020-12-01&lt;br&gt;&lt;/span&gt;" style="shape=offPageConnector;whiteSpace=wrap;html=1;fillColor=#ffe6cc;fontSize=15;size=0.4178571428571445;flipV=1;verticalAlign=bottom;strokeColor=#d79b00;spacingBottom=4;" parent="1" vertex="1">
          <mxGeometry x="796" y="425" width="170" height="55" as="geometry" />
        </mxCell>
        <mxCell id="4ec97bd9e5d20128-9" value="" style="ellipse;whiteSpace=wrap;html=1;fillColor=#d5e8d4;fontSize=28;strokeWidth=3;strokeColor=#82b366;" parent="1" vertex="1">
          <mxGeometry x="190" y="395" width="20" height="20" as="geometry" />
        </mxCell>
        <mxCell id="4ec97bd9e5d20128-10" value="" style="ellipse;whiteSpace=wrap;html=1;fillColor=#ffe6cc;fontSize=28;strokeWidth=3;strokeColor=#d79b00;" parent="1" vertex="1">
          <mxGeometry x="417" y="395" width="20" height="20" as="geometry" />
        </mxCell>
        <mxCell id="4ec97bd9e5d20128-11" value="" style="ellipse;whiteSpace=wrap;html=1;fillColor=#d5e8d4;fontSize=28;strokeWidth=3;strokeColor=#82b366;" parent="1" vertex="1">
          <mxGeometry x="643" y="395" width="20" height="20" as="geometry" />
        </mxCell>
        <mxCell id="4ec97bd9e5d20128-13" value="" style="ellipse;whiteSpace=wrap;html=1;fillColor=#ffe6cc;fontSize=28;strokeWidth=3;strokeColor=#d79b00;" parent="1" vertex="1">
          <mxGeometry x="870" y="395" width="20" height="20" as="geometry" />
        </mxCell>
        <mxCell id="4ec97bd9e5d20128-14" value="&lt;h1&gt;&lt;div&gt;&lt;font style=&quot;font-size: 24px&quot;&gt;&lt;br&gt;&lt;/font&gt;&lt;/div&gt;&lt;div&gt;&lt;font size=&quot;3&quot;&gt;1.产品方案评审&lt;/font&gt;&lt;/div&gt;&lt;div&gt;&lt;font size=&quot;3&quot;&gt;2.技术方案设计&lt;/font&gt;&lt;/div&gt;&lt;/h1&gt;" style="text;html=1;spacing=5;spacingTop=-20;whiteSpace=wrap;overflow=hidden;strokeColor=#82b366;strokeWidth=3;fillColor=#d5e8d4;fontSize=13;align=center;rounded=1;" parent="1" vertex="1">
          <mxGeometry x="93" y="430" width="217" height="130" as="geometry" />
        </mxCell>
        <mxCell id="4ec97bd9e5d20128-17" value="&lt;h1&gt;&lt;br&gt;&lt;/h1&gt;" style="text;html=1;spacing=5;spacingTop=-20;whiteSpace=wrap;overflow=hidden;strokeColor=#82b366;strokeWidth=3;fillColor=#d5e8d4;fontSize=13;align=center;rounded=1;" parent="1" vertex="1">
          <mxGeometry x="545" y="430" width="215" height="130" as="geometry" />
        </mxCell>
        <mxCell id="4ec97bd9e5d20128-18" value="&lt;h1&gt;&lt;br&gt;&lt;/h1&gt;" style="text;html=1;spacing=5;spacingTop=-20;whiteSpace=wrap;overflow=hidden;strokeColor=#d79b00;strokeWidth=3;fillColor=#ffe6cc;fontSize=13;align=center;rounded=1;" parent="1" vertex="1">
          <mxGeometry x="773" y="250" width="227" height="120" as="geometry" />
        </mxCell>
        <mxCell id="1pX3YzozoCIWpOuqQOYF-4" value="&lt;font style=&quot;font-size: 14px&quot;&gt;&lt;b&gt;1.视频打标、流转、动作模块；&lt;br&gt;2.视频多审功能；&lt;br&gt;3.外包人员管理配置平台；&lt;br&gt;4.外包领取、分配功能、超时回收功能；&lt;br&gt;5.上线快团团业务&lt;/b&gt;&lt;/font&gt;" style="text;html=1;strokeColor=none;fillColor=none;align=left;verticalAlign=middle;whiteSpace=wrap;rounded=0;" parent="1" vertex="1">
          <mxGeometry x="552.5" y="440" width="197.5" height="110" as="geometry" />
        </mxCell>
        <mxCell id="1pX3YzozoCIWpOuqQOYF-5" value="&lt;h1&gt;&lt;br&gt;&lt;/h1&gt;" style="text;html=1;spacing=5;spacingTop=-20;whiteSpace=wrap;overflow=hidden;strokeColor=#d79b00;strokeWidth=3;fillColor=#ffe6cc;fontSize=13;align=center;rounded=1;" parent="1" vertex="1">
          <mxGeometry x="319.5" y="252" width="215" height="120" as="geometry" />
        </mxCell>
        <mxCell id="1pX3YzozoCIWpOuqQOYF-6" value="&lt;div style=&quot;text-align: left&quot;&gt;&lt;font style=&quot;font-size: 18px&quot;&gt;&lt;b&gt;&lt;span style=&quot;text-align: center&quot;&gt;1.&lt;/span&gt;&lt;span style=&quot;font-family: &amp;#34;helvetica&amp;#34; ; text-align: center&quot;&gt;技术方案多次评审&lt;/span&gt;&lt;/b&gt;&lt;/font&gt;&lt;/div&gt;&lt;font size=&quot;3&quot;&gt;&lt;b&gt;&lt;span style=&quot;font-family: &amp;#34;helvetica&amp;#34; ; text-align: center&quot;&gt;2.业务逻辑完善&lt;br&gt;&lt;/span&gt;&lt;span style=&quot;font-family: &amp;#34;helvetica&amp;#34; ; text-align: center&quot;&gt;3.相关配置表改造&lt;/span&gt;&lt;/b&gt;&lt;/font&gt;&lt;span style=&quot;font-family: &amp;#34;helvetica&amp;#34; ; font-size: 13px ; text-align: center&quot;&gt;&lt;br&gt;&lt;/span&gt;" style="text;html=1;strokeColor=none;fillColor=none;align=left;verticalAlign=middle;whiteSpace=wrap;rounded=0;" parent="1" vertex="1">
          <mxGeometry x="331" y="270" width="190" height="90" as="geometry" />
        </mxCell>
        <mxCell id="1pX3YzozoCIWpOuqQOYF-7" value="" style="line;strokeWidth=2;html=1;fillColor=none;fontSize=28;fontColor=#004D99;strokeColor=#004D99;" parent="1" vertex="1">
          <mxGeometry x="1020" y="400" width="1070" height="10" as="geometry" />
        </mxCell>
        <mxCell id="1pX3YzozoCIWpOuqQOYF-8" value="2020-12-01~&lt;br&gt;2020-12-22" style="shape=offPageConnector;whiteSpace=wrap;html=1;fillColor=#d5e8d4;fontSize=15;size=0.5093750000000015;verticalAlign=top;strokeColor=#82b366;" parent="1" vertex="1">
          <mxGeometry x="1057" y="330" width="160" height="50" as="geometry" />
        </mxCell>
        <mxCell id="1pX3YzozoCIWpOuqQOYF-9" value="&lt;span&gt;&lt;div&gt;2020-12-22~&lt;/div&gt;&lt;div&gt;2021-05-01&lt;/div&gt;&lt;/span&gt;" style="shape=offPageConnector;whiteSpace=wrap;html=1;fillColor=#d5e8d4;fontSize=15;size=0.5093750000000015;verticalAlign=top;strokeColor=#82b366;" parent="1" vertex="1">
          <mxGeometry x="1550" y="340" width="167" height="50" as="geometry" />
        </mxCell>
        <mxCell id="1pX3YzozoCIWpOuqQOYF-10" value="2021-01-01~&lt;br&gt;2021-03-01&lt;span&gt;&lt;br&gt;&lt;/span&gt;" style="shape=offPageConnector;whiteSpace=wrap;html=1;fillColor=#ffe6cc;fontSize=15;size=0.4178571428571445;flipV=1;verticalAlign=bottom;strokeColor=#d79b00;spacingBottom=4;" parent="1" vertex="1">
          <mxGeometry x="1306" y="420" width="163" height="50" as="geometry" />
        </mxCell>
        <mxCell id="1pX3YzozoCIWpOuqQOYF-12" value="" style="ellipse;whiteSpace=wrap;html=1;fillColor=#d5e8d4;fontSize=28;strokeWidth=3;strokeColor=#82b366;" parent="1" vertex="1">
          <mxGeometry x="1127" y="395" width="20" height="20" as="geometry" />
        </mxCell>
        <mxCell id="1pX3YzozoCIWpOuqQOYF-13" value="" style="ellipse;whiteSpace=wrap;html=1;fillColor=#ffe6cc;fontSize=28;strokeWidth=3;strokeColor=#d79b00;" parent="1" vertex="1">
          <mxGeometry x="1376" y="395" width="20" height="20" as="geometry" />
        </mxCell>
        <mxCell id="1pX3YzozoCIWpOuqQOYF-14" value="" style="ellipse;whiteSpace=wrap;html=1;fillColor=#d5e8d4;fontSize=28;strokeWidth=3;strokeColor=#82b366;" parent="1" vertex="1">
          <mxGeometry x="1623" y="395" width="20" height="20" as="geometry" />
        </mxCell>
        <mxCell id="1pX3YzozoCIWpOuqQOYF-16" value="&lt;h1&gt;&lt;br&gt;&lt;/h1&gt;" style="text;html=1;spacing=5;spacingTop=-20;whiteSpace=wrap;overflow=hidden;strokeColor=#82b366;strokeWidth=3;fillColor=#d5e8d4;fontSize=13;align=center;rounded=1;" parent="1" vertex="1">
          <mxGeometry x="1030" y="430" width="215" height="120" as="geometry" />
        </mxCell>
        <mxCell id="1pX3YzozoCIWpOuqQOYF-17" value="&lt;h1&gt;&lt;br&gt;&lt;/h1&gt;" style="text;html=1;spacing=5;spacingTop=-20;whiteSpace=wrap;overflow=hidden;strokeColor=#82b366;strokeWidth=3;fillColor=#d5e8d4;fontSize=13;align=center;rounded=1;" parent="1" vertex="1">
          <mxGeometry x="1525" y="430" width="215" height="130" as="geometry" />
        </mxCell>
        <mxCell id="1pX3YzozoCIWpOuqQOYF-18" value="&lt;h1&gt;&lt;br&gt;&lt;/h1&gt;" style="text;html=1;spacing=5;spacingTop=-20;whiteSpace=wrap;overflow=hidden;strokeColor=#d79b00;strokeWidth=3;fillColor=#ffe6cc;fontSize=13;align=center;rounded=1;" parent="1" vertex="1">
          <mxGeometry x="1753" y="250" width="215" height="120" as="geometry" />
        </mxCell>
        <mxCell id="1pX3YzozoCIWpOuqQOYF-20" value="&lt;h1&gt;&lt;br&gt;&lt;/h1&gt;" style="text;html=1;spacing=5;spacingTop=-20;whiteSpace=wrap;overflow=hidden;strokeColor=#d79b00;strokeWidth=3;fillColor=#ffe6cc;fontSize=13;align=center;rounded=1;" parent="1" vertex="1">
          <mxGeometry x="1278.5" y="252" width="215" height="120" as="geometry" />
        </mxCell>
        <mxCell id="-uqG4-9dDikoudS8ZXK9-4" value="&lt;font style=&quot;font-size: 18px&quot;&gt;&lt;b style=&quot;line-height: 70%&quot;&gt;1.聚合审核功能&lt;br&gt;2.视频审核动作模块功能&lt;br&gt;3.主控审核业务&lt;/b&gt;&lt;/font&gt;" style="text;html=1;strokeColor=none;fillColor=none;align=left;verticalAlign=middle;whiteSpace=wrap;rounded=0;" vertex="1" parent="1">
          <mxGeometry x="790" y="270" width="200" height="80" as="geometry" />
        </mxCell>
        <mxCell id="-uqG4-9dDikoudS8ZXK9-5" value="&lt;font style=&quot;font-size: 16px&quot;&gt;&lt;b&gt;上线相关标签配置页面&lt;/b&gt;&lt;/font&gt;" style="text;html=1;strokeColor=none;fillColor=none;align=left;verticalAlign=middle;whiteSpace=wrap;rounded=0;" vertex="1" parent="1">
          <mxGeometry x="1047" y="450" width="180" height="70" as="geometry" />
        </mxCell>
        <mxCell id="-uqG4-9dDikoudS8ZXK9-7" value="" style="ellipse;whiteSpace=wrap;html=1;fillColor=#ffe6cc;fontSize=28;strokeWidth=3;strokeColor=#d79b00;" vertex="1" parent="1">
          <mxGeometry x="1850.5" y="395" width="20" height="20" as="geometry" />
        </mxCell>
        <mxCell id="-uqG4-9dDikoudS8ZXK9-11" value="&lt;font style=&quot;font-size: 16px&quot;&gt;&lt;b&gt;申诉功能&lt;br&gt;迭代优化&lt;br&gt;......&lt;/b&gt;&lt;/font&gt;" style="text;html=1;strokeColor=none;fillColor=none;align=center;verticalAlign=middle;whiteSpace=wrap;rounded=0;" vertex="1" parent="1">
          <mxGeometry x="1797" y="280" width="127" height="60" as="geometry" />
        </mxCell>
        <mxCell id="-uqG4-9dDikoudS8ZXK9-12" value="TODO" style="shape=offPageConnector;whiteSpace=wrap;html=1;fillColor=#ffe6cc;fontSize=15;size=0.4178571428571445;flipV=1;verticalAlign=bottom;strokeColor=#d79b00;spacingBottom=4;" vertex="1" parent="1">
          <mxGeometry x="1780.5" y="440" width="160" height="35" as="geometry" />
        </mxCell>
        <mxCell id="-uqG4-9dDikoudS8ZXK9-15" value="" style="endArrow=classic;html=1;strokeWidth=2;" edge="1" parent="1">
          <mxGeometry width="50" height="50" relative="1" as="geometry">
            <mxPoint x="2001" y="404.5" as="sourcePoint" />
            <mxPoint x="2091" y="404.5" as="targetPoint" />
            <Array as="points">
              <mxPoint x="2067" y="405" />
            </Array>
          </mxGeometry>
        </mxCell>
        <mxCell id="-uqG4-9dDikoudS8ZXK9-16" value="&lt;b&gt;&lt;font style=&quot;font-size: 18px&quot;&gt;接入各个视频类业务&lt;/font&gt;&lt;/b&gt;" style="text;html=1;strokeColor=none;fillColor=none;align=center;verticalAlign=middle;whiteSpace=wrap;rounded=0;" vertex="1" parent="1">
          <mxGeometry x="1550" y="475" width="170" height="55" as="geometry" />
        </mxCell>
        <mxCell id="-uqG4-9dDikoudS8ZXK9-17" value="&lt;font style=&quot;font-size: 15px&quot;&gt;&lt;b&gt;完善视频监控功能&lt;/b&gt;&lt;/font&gt;" style="text;html=1;strokeColor=none;fillColor=none;align=center;verticalAlign=middle;whiteSpace=wrap;rounded=0;" vertex="1" parent="1">
          <mxGeometry x="1319" y="280" width="123" height="60" as="geometry" />
        </mxCell>
      </root>
    </mxGraphModel>
  </diagram>
</mxfile>
